<?xml version="1.0" encoding="UTF-8"?>
<svg width="24px" height="24px" viewBox="0 0 24 24" version="1.1" xmlns="http://www.w3.org/2000/svg" xmlns:xlink="http://www.w3.org/1999/xlink">
    <!-- Generator: Sketch 42 (36781) - http://www.bohemiancoding.com/sketch -->
    <title>icon_sound-2</title>
    <desc>Created with Sketch.</desc>
    <defs></defs>
    <g id="icons" stroke="none" stroke-width="1" fill="none" fill-rule="evenodd">
        <g id="icon_sound-2" fill="#FFFFFF">
            <path d="M14.8284271,14.8284271 C16.3905243,13.26633 16.3905243,10.73367 14.8284271,9.17157288 C14.4379028,8.78104858 13.8047379,8.78104858 13.4142136,9.17157288 C13.0236893,9.56209717 13.0236893,10.1952621 13.4142136,10.5857864 C14.1952621,11.366835 14.1952621,12.633165 13.4142136,13.4142136 C13.0236893,13.8047379 13.0236893,14.4379028 13.4142136,14.8284271 C13.8047379,15.2189514 14.4379028,15.2189514 14.8284271,14.8284271 Z" id="sound-wave-1" fill-rule="nonzero"></path>
            <path d="M17.6568542,17.6568542 C20.7810486,14.5326599 20.7810486,9.46734008 17.6568542,6.34314575 C17.26633,5.95262146 16.633165,5.95262146 16.2426407,6.34314575 C15.8521164,6.73367004 15.8521164,7.36683502 16.2426407,7.75735931 C18.5857864,10.1005051 18.5857864,13.8994949 16.2426407,16.2426407 C15.8521164,16.633165 15.8521164,17.26633 16.2426407,17.6568542 C16.633165,18.0473785 17.26633,18.0473785 17.6568542,17.6568542 Z" id="sound-wave-2" fill-rule="nonzero"></path>
            <path d="M1.0093689,8.0749622 C0.451909848,8.0749622 0,8.51944308 0,9.06903369 L0,14.9298135 C0,15.478824 0.443353176,15.923885 1.0093689,15.923885 L4,15.923885 L9.37646484,19.6916936 C10.2772423,20.3229555 11,19.9530982 11,18.872049 L11,5.1267982 C11,4.0451514 10.2731186,3.67878158 9.37646484,4.30715352 L4,8.0749622 L1.0093689,8.0749622 Z" id="speaker"></path>
        </g>
    </g>
</svg>