<?xml version="1.0" encoding="UTF-8"?>
<svg width="24px" height="24px" viewBox="0 0 24 24" version="1.1" xmlns="http://www.w3.org/2000/svg" xmlns:xlink="http://www.w3.org/1999/xlink">
    <!-- Generator: Sketch 42 (36781) - http://www.bohemiancoding.com/sketch -->
    <title>icon_sound-mute</title>
    <desc>Created with Sketch.</desc>
    <defs></defs>
    <g id="icons" stroke="none" stroke-width="1" fill="none" fill-rule="evenodd">
        <g id="icon_sound-mute" fill="#FFFFFF">
            <path d="M18,10.7529107 L15.5073637,8.2602744 C15.1664641,7.91937486 14.6031064,7.914358 14.2587322,8.25873219 C13.9119571,8.6055073 13.9150485,9.16213774 14.2602744,9.50736367 L16.7529107,12 L14.2602744,14.4926363 C13.9193749,14.8335359 13.914358,15.3968936 14.2587322,15.7412678 C14.6055073,16.0880429 15.1621377,16.0849515 15.5073637,15.7397256 L18,13.2470893 L20.4926363,15.7397256 C20.8335359,16.0806251 21.3968936,16.085642 21.7412678,15.7412678 C22.0880429,15.3944927 22.0849515,14.8378623 21.7397256,14.4926363 L19.2470893,12 L21.7397256,9.50736367 C22.0806251,9.16646413 22.085642,8.60310639 21.7412678,8.25873219 C21.3944927,7.91195709 20.8378623,7.91504847 20.4926363,8.2602744 L18,10.7529107 Z" id="cross"></path>
            <path d="M1.0093689,8.0749622 C0.451909848,8.0749622 0,8.51944308 0,9.06903369 L0,14.9298135 C0,15.478824 0.443353176,15.923885 1.0093689,15.923885 L4,15.923885 L9.37646484,19.6916936 C10.2772423,20.3229555 11,19.9530982 11,18.872049 L11,5.1267982 C11,4.0451514 10.2731186,3.67878158 9.37646484,4.30715352 L4,8.0749622 L1.0093689,8.0749622 Z" id="speaker"></path>
        </g>
    </g>
</svg>